<?xml version="1.0" encoding="UTF-8" standalone="no"?>
<!-- Created with Inkscape (http://www.inkscape.org/) -->

<svg
   width="1000mm"
   height="250mm"
   viewBox="0 0 1000 249.99997"
   version="1.1"
   id="svg1"
   xml:space="preserve"
   sodipodi:docname="Letrero-Learnix.svg"
   inkscape:version="1.4 (86a8ad7, 2024-10-11)"
   xmlns:inkscape="http://www.inkscape.org/namespaces/inkscape"
   xmlns:sodipodi="http://sodipodi.sourceforge.net/DTD/sodipodi-0.dtd"
   xmlns="http://www.w3.org/2000/svg"
   xmlns:svg="http://www.w3.org/2000/svg"><sodipodi:namedview
     id="namedview1"
     pagecolor="#505050"
     bordercolor="#ffffff"
     borderopacity="1"
     inkscape:showpageshadow="0"
     inkscape:pageopacity="0"
     inkscape:pagecheckerboard="1"
     inkscape:deskcolor="#505050"
     inkscape:document-units="mm"
     inkscape:zoom="0.25"
     inkscape:cx="1816"
     inkscape:cy="490"
     inkscape:window-width="1920"
     inkscape:window-height="991"
     inkscape:window-x="-9"
     inkscape:window-y="-9"
     inkscape:window-maximized="1"
     inkscape:current-layer="g8" /><defs
     id="defs1"><rect
       x="-206.46634"
       y="-200.79417"
       width="1208.1685"
       height="128.19064"
       id="rect8" /><rect
       x="-240.49925"
       y="-214.40735"
       width="294.9519"
       height="343.73242"
       id="rect7" /><rect
       x="324.44711"
       y="370.95874"
       width="714.69116"
       height="97.561012"
       id="rect6" /><rect
       x="314.23721"
       y="368.68988"
       width="491.20837"
       height="188.31544"
       id="rect5" /><rect
       x="409.50912"
       y="140.85953"
       width="614.26367"
       height="309.31009"
       id="rect2" /></defs><g
     inkscape:label="Capa 1"
     inkscape:groupmode="layer"
     id="layer1"
     transform="translate(69.089327,-63.425494)"><g
       id="g8"
       transform="matrix(4.9889325,0,0,2.3148327,275.87105,-83.354956)"><rect
         style="fill:#000000;fill-opacity:1;stroke-width:0.376659;stroke-linecap:square;stroke-miterlimit:0"
         id="rect1"
         width="200.04935"
         height="107.85909"
         x="-69.159119"
         y="63.395863" /><path
         style="fill:#c80000;fill-opacity:1;stroke-width:0.727403"
         d="m -55.862822,161.45551 c -0.679971,-0.67837 -1.881299,-1.84893 -2.669615,-2.60122 -1.578498,-1.50638 -2.410183,-2.90564 -2.686373,-4.51965 -0.253384,-1.48074 -0.239953,-44.7393 0.01417,-45.63351 0.100522,-0.35372 0.535883,-0.94972 0.979635,-1.34108 4.035895,-3.59975 17.430021,-14.702569 17.670193,-14.702569 0.311953,0 0.655033,0.914008 0.655033,1.74509 0,0.792366 -0.05235,0.858636 -1.999915,2.531631 -1.09995,0.944886 -2.523527,2.138341 -3.163499,2.652124 -5.877562,4.718654 -11.302111,9.398994 -11.382425,9.820874 -0.0523,0.27473 3.619256,3.62317 3.972807,3.62317 0.120351,0 0.976221,-0.63029 1.90193,-1.40063 0.92571,-0.77036 1.711353,-1.40065 1.745871,-1.40065 0.03452,0 2.596792,-2.18865 5.693943,-4.86368 3.097153,-2.67502 5.876628,-5.03673 6.176618,-5.2482 l 0.54543,-0.384518 v -5.159057 -5.159054 l -0.593211,-0.687338 c -1.095234,-1.269016 -1.448891,-3.845684 -0.824907,-6.010189 0.73963,-2.565691 2.845981,-3.110878 4.085537,-1.057446 0.597217,0.989331 0.823664,1.894569 0.82095,3.281742 -0.0029,1.488513 -0.467296,3.045865 -1.123845,3.768893 l -0.462491,0.509327 -0.0056,5.424184 c -0.0044,4.430819 -0.04766,5.566646 -0.235335,6.202026 -0.188887,0.63953 -0.660878,1.14107 -2.65443,2.8206 -1.333585,1.12352 -4.355526,3.69707 -6.715426,5.719 -2.359899,2.0219 -5.049448,4.31143 -5.97678,5.08785 l -1.686055,1.41164 c -0.422052,29.45993 -0.07564,43.74848 -0.0436,43.74848 0.384714,0 15.998663,-14.07734 21.196765,-18.43258 l 2.072639,-1.73658 v -15.64783 -15.64782 l 2.038147,-3.48995 2.03815,-3.48997 -0.0016,-2.600217 c -9.66e-4,-1.767789 -0.06008,-2.683756 -0.183686,-2.861112 -0.09999,-0.143467 -0.387325,-0.548649 -0.638507,-0.900401 -0.629542,-0.881585 -0.974476,-2.476698 -0.853026,-3.944671 0.267463,-3.232926 2.189442,-4.838518 3.80617,-3.179633 1.603782,1.645603 1.624143,5.818363 0.03677,7.531733 l -0.561831,0.60642 -0.0039,3.466691 -0.0039,3.46669 -2.036273,3.47183 -2.03628,3.47181 v 15.73713 15.73713 l -12.295602,10.74863 c -9.57922,8.37423 -12.414669,10.74857 -12.835815,10.74843 -0.379075,-1.1e-4 -0.909885,-0.36862 -1.776867,-1.23357 z m 0.218174,-46.00587 -1.89083,-1.70829 c -1.039956,-0.93955 -1.972643,-1.71308 -2.07264,-1.71896 -0.19412,-0.0117 -0.409141,40.46117 0.09865,41.91926 0.299295,0.8594 1.052676,1.82757 2.337613,3.00406 0.439982,0.40286 0.925171,0.8811 1.078205,1.06276 0.15303,0.18168 0.316658,0.28861 0.363622,0.23761 0.134449,-14.26176 0.08539,-28.53175 0.08539,-42.79644 z m 30.371896,-22.575613 c 0.410172,-0.378008 0.530904,-0.710536 0.533641,-1.469796 0.0029,-0.830715 -0.395417,-1.548875 -0.856642,-1.54411 -1.240709,0.0128 -1.275809,2.856383 -0.04063,3.290546 0.02525,0.0087 0.18889,-0.115616 0.36362,-0.27664 z m -11.65507,-6.67055 c 0.661457,-0.880418 0.250171,-2.97288 -0.582704,-2.964547 -0.470795,0.0047 -0.656868,0.203011 -0.876727,0.934337 -0.239876,0.797931 -0.207683,1.282867 0.123678,1.863041 0.32838,0.574948 0.969137,0.655143 1.335753,0.167169 z m -13.548295,59.185943 c -0.410978,-1.34453 -0.485074,-1.25844 5.631004,-6.54306 9.015561,-7.78997 10.529364,-9.03917 10.854324,-8.95714 0.337602,0.0852 0.623487,1.17891 0.479674,1.83507 -0.05035,0.22966 -1.680204,1.77797 -3.621937,3.44072 -1.941731,1.66271 -5.525282,4.75426 -7.963441,6.87006 -2.456094,2.13139 -4.61052,3.84693 -4.831042,3.84693 -0.244647,0 -0.456034,-0.18982 -0.548582,-0.49258 z m 0.09015,-9.65061 c -0.284246,-0.54992 -0.316545,-1.65725 -0.05891,-2.01951 0.1,-0.1406 3.487123,-3.07786 7.52695,-6.52723 l 7.345142,-6.27158 -0.05212,-7.70131 c -0.03628,-5.35864 -0.0016,-7.92549 0.113441,-8.43829 0.09107,-0.40532 0.919783,-1.99797 1.841577,-3.53919 l 1.675985,-2.802249 -0.0515,-8.357193 -0.05151,-8.357211 -0.606748,-0.769555 c -1.841752,-2.335936 -1.515838,-7.250925 0.582604,-8.786063 2.382859,-1.743208 4.706185,2.686808 3.615169,6.893261 -0.261704,1.009006 -1.096286,2.38972 -1.444488,2.38972 -0.123833,0 -0.168078,2.269436 -0.168078,8.620605 v 8.62061 l -0.399987,0.921184 c -0.219991,0.506641 -1.0545,2.144121 -1.854468,3.638831 l -1.45448,2.71765 0.05372,8.21557 0.05371,8.21556 -0.344597,0.33129 c -0.189528,0.18221 -2.144516,1.86355 -4.344428,3.73633 -2.199905,1.87278 -5.668848,4.83017 -7.70876,6.572 -2.039912,1.74184 -3.780604,3.16597 -3.868201,3.16473 -0.0876,-7.9e-4 -0.267588,-0.21181 -0.399979,-0.46796 z m 20.122051,-57.596991 c 0.623735,-1.0921 0.08766,-3.310609 -0.799968,-3.310609 -0.495999,0 -1.09086,1.06098 -1.09086,1.945635 0,1.602962 1.242583,2.499961 1.890828,1.364974 z M -50.53419,124.01904 c -0.1634,-0.31613 -0.241271,-0.79742 -0.211809,-1.30909 0.04527,-0.78623 0.135181,-0.8833 3.17373,-3.42616 1.719928,-1.43935 4.017034,-3.38107 5.104681,-4.31493 1.087942,-0.9341 2.076888,-1.63116 2.198389,-1.54952 0.306016,0.20559 0.579042,1.34788 0.468251,1.95906 -0.0654,0.36076 -1.497547,1.71139 -4.967768,4.68504 -2.681739,2.29798 -5.017904,4.24054 -5.191478,4.31684 -0.204847,0.09 -0.406273,-0.0368 -0.573996,-0.36124 z"
         id="path8"
         sodipodi:nodetypes="sssssssscsssssscccssssscssssscsscccccsssssscccccccsssscscsssscscscssssssssssssssssscssscccssssscsscccssscssssssssssssssss" /><text
         xml:space="preserve"
         transform="matrix(0.47369892,0,0,0.75054598,-294.71191,3.9568872)"
         id="text1"
         style="font-size:85.3333px;line-height:0;font-family:'Baskerville Old Face';-inkscape-font-specification:'Baskerville Old Face';text-align:center;writing-mode:lr-tb;direction:ltr;white-space:pre;shape-inside:url(#rect2);fill:#f9f9f9;fill-opacity:1;stroke-width:1.88976;stroke-linecap:square;stroke-miterlimit:0"><tspan
           x="608.14165"
           y="171.03079"
           id="tspan6"><tspan
             style="font-family:Haettenschweiler;-inkscape-font-specification:Haettenschweiler"
             id="tspan2">LEARNIX</tspan></tspan></text><text
         xml:space="preserve"
         transform="matrix(0.26458333,0,0,0.26458333,-61.202232,195.76204)"
         id="text8"
         style="font-style:normal;font-variant:normal;font-weight:normal;font-stretch:normal;font-size:37.3333px;line-height:0;font-family:'Snap ITC';-inkscape-font-specification:'Snap ITC';text-align:center;writing-mode:lr-tb;direction:ltr;white-space:pre;shape-inside:url(#rect8);fill:#f9f9f9;fill-opacity:0.58042;stroke-width:1.88976;stroke-linecap:square;stroke-miterlimit:0"><tspan
           x="199.0835"
           y="-187.59493"
           id="tspan8"><tspan
             style="font-family:Haettenschweiler;-inkscape-font-specification:Haettenschweiler"
             id="tspan7">Aprende a tu ritmo, llega mas lejos</tspan></tspan></text></g></g></svg>
