<?xml version="1.0" encoding="UTF-8" standalone="no"?>
<!-- Created with Inkscape (http://www.inkscape.org/) -->

<svg
   width="210mm"
   height="297mm"
   viewBox="0 0 210 297"
   version="1.1"
   id="svg1"
   xml:space="preserve"
   sodipodi:docname="logo-examen.svg"
   inkscape:version="1.4 (86a8ad7, 2024-10-11)"
   xmlns:inkscape="http://www.inkscape.org/namespaces/inkscape"
   xmlns:sodipodi="http://sodipodi.sourceforge.net/DTD/sodipodi-0.dtd"
   xmlns="http://www.w3.org/2000/svg"
   xmlns:svg="http://www.w3.org/2000/svg"><sodipodi:namedview
     id="namedview1"
     pagecolor="#505050"
     bordercolor="#ffffff"
     borderopacity="1"
     inkscape:showpageshadow="0"
     inkscape:pageopacity="0"
     inkscape:pagecheckerboard="1"
     inkscape:deskcolor="#505050"
     inkscape:document-units="mm"
     inkscape:zoom="0.34431467"
     inkscape:cx="335.44896"
     inkscape:cy="259.93664"
     inkscape:window-width="1920"
     inkscape:window-height="991"
     inkscape:window-x="-9"
     inkscape:window-y="-9"
     inkscape:window-maximized="1"
     inkscape:current-layer="layer1" /><defs
     id="defs1" /><g
     inkscape:label="Capa 1"
     inkscape:groupmode="layer"
     id="layer1"
     style="display:inline"><g
       id="g19"
       transform="matrix(2.0979925,0,0,2.1020991,-115.99637,-166.04597)"><ellipse
         style="opacity:1;fill:#f9f9f9;fill-opacity:1;fill-rule:nonzero;stroke-width:0.5;stroke-linecap:square;stroke-miterlimit:0;stroke-dasharray:none"
         id="path16"
         cx="104.89133"
         cy="149.36449"
         rx="47.642948"
         ry="47.546894" /><g
         id="g9"><path
           style="fill:#a3e7e2"
           d="m 78.116511,188.89139 c -2.110562,-1.4186 -5.407767,-4.24458 -7.560811,-6.48024 -10.092614,-10.47986 -14.829522,-24.82753 -12.944461,-39.2076 1.35236,-10.31638 5.69034,-19.30549 12.962452,-26.86063 5.808893,-6.03498 12.563774,-10.16375 20.598593,-12.59044 9.356466,-2.82586 19.873756,-2.62594 29.120976,0.55356 5.27266,1.81292 11.17445,5.15366 15.30398,8.66292 l 1.78594,1.51768 v -2.5008 c 0,-3.4631 0.25758,-3.7724 3.07244,-3.68938 2.43115,0.0717 2.79447,0.32793 3.00047,2.11608 0.11363,0.9863 0.25869,1.27722 0.67396,1.35165 0.29104,0.0522 0.64823,0.20829 0.79375,0.34694 0.15889,0.15139 0.27748,2.59853 0.29686,6.12588 l 0.0323,5.87378 1.10143,1.92639 c 4.8497,8.48208 6.98391,19.32505 5.73115,29.11731 -1.30911,10.23267 -5.4982,19.19657 -12.51077,26.77079 -3.02344,3.26559 -8.8538,7.93447 -9.90834,7.93447 -0.46815,0 -0.48531,-1.19258 -0.48531,-33.72933 v -33.72934 l -0.59531,-0.14594 c -0.32742,-0.0803 -3.21469,-0.1123 -6.41614,-0.0712 l -5.82084,0.0748 -0.13229,1.19063 -0.13229,1.19062 H 104.83943 93.594636 l -0.07407,-0.66146 c -0.04074,-0.3638 -0.132305,-0.92935 -0.203478,-1.25677 l -0.129407,-0.59531 -6.01423,0.004 c -3.307827,0.002 -6.1626,0.0983 -6.343941,0.21342 -0.259814,0.16499 -0.34395,7.32897 -0.396875,33.79286 -0.05921,29.60686 -0.114158,33.59231 -0.464039,33.65812 -0.218282,0.041 -1.051719,-0.36551 -1.852084,-0.90348 z m 62.896559,-25.42383 0.26272,-1.38906 h -0.78572 c -0.78451,0 -0.78544,0.002 -0.60211,1.22445 0.36035,2.40299 0.69257,2.4516 1.12511,0.16461 z m -54.2976,14.61729 c -2.010241,-0.7115 -3.830019,-3.27027 -3.834983,-5.39232 -0.0049,-2.082 1.625372,-4.46132 3.564076,-5.20172 1.764232,-0.67376 4.061078,-0.43987 5.477486,0.5578 2.964787,2.08828 3.154527,6.73019 0.368955,9.02629 -1.656566,1.36548 -3.584412,1.71469 -5.575534,1.00995 z m 3.658872,-1.286 c 2.971674,-1.24164 3.586054,-5.57665 1.070759,-7.55518 -1.666686,-1.31102 -4.001446,-1.24047 -5.679619,0.17162 -3.753294,3.15819 0.0684,9.28069 4.60886,7.38356 z m -4.157252,-2.81486 c -0.526256,-0.5825 -0.956829,-1.22742 -0.956829,-1.43316 0,-0.69671 0.657718,-0.62131 1.496789,0.17158 l 0.83533,0.78936 1.281337,-1.14212 c 2.572999,-2.29344 2.421172,-2.19601 2.857677,-1.83374 0.255577,0.21211 0.321858,0.47481 0.182586,0.72368 -0.3196,0.57109 -4.087811,3.78112 -4.440119,3.7824 -0.164968,6e-4 -0.730514,-0.4755 -1.256771,-1.058 z m 12.058124,2.18357 c 0.08287,-0.43029 0.733855,-0.46302 9.210046,-0.46302 8.47619,0 9.12718,0.0327 9.21005,0.46302 0.0836,0.43389 -0.49607,0.46303 -9.21005,0.46303 -8.713977,0 -9.293604,-0.0291 -9.210046,-0.46303 z m -0.05037,-3.50572 c 0,-0.52212 0.176389,-0.52917 13.229166,-0.52917 13.05278,0 13.22917,0.007 13.22917,0.52917 0,0.52211 -0.17639,0.52916 -13.22917,0.52916 -13.052777,0 -13.229166,-0.007 -13.229166,-0.52916 z m 0,-3.43959 c 0,-0.52211 0.176389,-0.52916 13.229166,-0.52916 13.05278,0 13.22917,0.007 13.22917,0.52916 0,0.52211 -0.17639,0.52917 -13.22917,0.52917 -13.052777,0 -13.229166,-0.007 -13.229166,-0.52917 z m -12.057259,-9.49664 c -1.814164,-0.82397 -3.291722,-3.1102 -3.287099,-5.08614 0.0068,-2.92018 2.868478,-5.78183 5.788661,-5.78866 1.947216,-0.005 4.152789,1.3996 5.092875,3.24232 0.828225,1.62345 0.625978,4.27758 -0.439975,5.77385 -1.558787,2.18806 -4.65703,2.99294 -7.154462,1.85863 z m 4.819986,-1.39064 c 2.276757,-1.36498 2.731207,-4.49279 0.958814,-6.59916 -2.001433,-2.37857 -5.739774,-1.95146 -7.166442,0.81878 -2.063672,4.00714 2.334386,8.10249 6.207628,5.78038 z M 86.2998,155.97273 c -1.126282,-1.21999 -1.285417,-1.75398 -0.60097,-2.01663 0.287286,-0.11024 0.647977,0.0752 1.045642,0.53747 0.333891,0.38817 0.702958,0.70577 0.82015,0.70577 0.117191,0 0.963931,-0.65485 1.881643,-1.45521 1.724784,-1.50424 2.265381,-1.73296 2.52107,-1.06665 0.09719,0.25328 -0.545514,1.01327 -1.845933,2.18281 -1.097271,0.98684 -2.172119,1.8942 -2.388551,2.01636 -0.284009,0.16029 -0.682788,-0.0912 -1.433051,-0.90392 z m 12.104851,2.49322 c -0.09889,-0.0989 -0.179806,-0.33856 -0.179806,-0.53259 0,-0.28727 1.723025,-0.35277 9.279815,-0.35277 8.69548,0 9.27421,0.0291 9.19072,0.46302 -0.0825,0.42852 -0.76048,0.4682 -9.10001,0.53258 -4.956,0.0383 -9.091825,-0.0113 -9.190719,-0.11024 z m -0.179806,-3.92807 c 0,-0.34749 1.646296,-0.39688 13.229165,-0.39688 11.58287,0 13.22917,0.0494 13.22917,0.39688 0,0.34748 -1.6463,0.39687 -13.22917,0.39687 -11.582869,0 -13.229165,-0.0494 -13.229165,-0.39687 z m 0,-3.43959 c 0,-0.34748 1.646296,-0.39687 13.229165,-0.39687 11.58287,0 13.22917,0.0494 13.22917,0.39687 0,0.34749 -1.6463,0.39688 -13.22917,0.39688 -11.582869,0 -13.229165,-0.0494 -13.229165,-0.39688 z m -12.202681,-9.60284 c -1.785128,-0.93256 -2.848948,-2.53221 -3.046979,-4.58169 -0.11678,-1.20859 -0.02372,-1.6474 0.610629,-2.87945 1.049094,-2.03758 2.473952,-2.98594 4.699061,-3.12763 1.462287,-0.0931 1.871244,-0.009 3.025806,0.61894 1.894051,1.03087 2.763471,2.42579 2.89614,4.64666 0.08232,1.37798 -0.0091,1.96469 -0.436889,2.80318 -1.522381,2.98411 -4.811505,4.05391 -7.747768,2.51999 z m 4.511387,-0.97099 c 3.106286,-1.60632 3.344374,-6.00441 0.422791,-7.81005 -1.047423,-0.64734 -3.252359,-0.71654 -4.372626,-0.13723 -2.119058,1.09581 -2.983748,4.02946 -1.792161,6.0803 1.126705,1.93918 3.874614,2.83264 5.741996,1.86698 z m -4.422919,-2.83572 c -0.467704,-0.60854 -0.850371,-1.26338 -0.850371,-1.45521 0,-0.57629 0.849318,-0.39454 1.623826,0.34748 l 0.726739,0.69626 1.668988,-1.48882 c 1.592732,-1.42079 2.383192,-1.78343 2.715488,-1.24576 0.290899,0.47068 -3.802548,4.25248 -4.60292,4.25248 -0.237258,0 -0.814046,-0.4979 -1.28175,-1.10643 z m 12.033211,2.52473 c -0.524731,-0.52473 0.970807,-0.62455 9.357037,-0.62455 8.04121,0 9.2448,0.0517 9.2448,0.39687 0,0.34519 -1.20043,0.39688 -9.21632,0.39688 -5.06898,0 -9.292459,-0.0761 -9.385517,-0.1692 z m 0.127747,-3.70391 c 0.07787,-0.3946 1.261456,-0.43382 13.18242,-0.43677 11.96401,-0.003 13.10428,0.0345 13.18242,0.43352 0.0786,0.40131 -0.99186,0.43678 -13.18242,0.43678 -12.150679,0 -13.260762,-0.0365 -13.18242,-0.43353 z m 0.0036,-3.46908 c 0.08349,-0.43353 0.922843,-0.46302 13.1788,-0.46302 12.25596,0 13.09531,0.0295 13.1788,0.46302 0.084,0.436 -0.68506,0.46302 -13.1788,0.46302 -12.493743,0 -13.262767,-0.027 -13.1788,-0.46302 z"
           id="path15" /><path
           style="fill:#fdca4e"
           d="m 78.116511,188.89139 c -2.110562,-1.4186 -5.407767,-4.24458 -7.560811,-6.48024 -10.092614,-10.47986 -14.829522,-24.82753 -12.944461,-39.2076 1.35236,-10.31638 5.69034,-19.30549 12.962452,-26.86063 5.808893,-6.03498 12.563774,-10.16375 20.598593,-12.59044 9.356466,-2.82586 19.873756,-2.62594 29.120976,0.55356 5.36452,1.8445 11.29524,5.22177 15.45136,8.79884 l 1.90314,1.63798 v -2.46706 c 0,-3.41842 0.17948,-3.64313 2.90981,-3.64313 1.3808,0 2.15682,0.11181 2.29538,0.33073 0.11514,0.1819 0.27099,0.9211 0.34635,1.64267 0.118,1.13003 0.22873,1.33344 0.79846,1.46689 l 0.66146,0.15494 0.13953,6.33832 c 0.0767,3.48608 0.16603,6.17492 0.19843,5.9752 0.11774,-0.7257 0.7727,0.23079 2.37658,3.47066 9.83973,19.87651 5.01601,43.44344 -11.81486,57.72304 -2.91341,2.47179 -5.27468,4.12463 -5.8925,4.12463 -0.46815,0 -0.48531,-1.19273 -0.48531,-33.73437 0,-18.55391 -0.0298,-33.75794 -0.0661,-33.78673 -0.0364,-0.0288 -3.00778,-0.1181 -6.60312,-0.19844 l -6.53697,-0.14608 -0.0776,1.19062 -0.0776,1.19063 H 104.83943 93.85922 l -0.07761,-1.19063 -0.07761,-1.19062 -6.536969,0.14608 c -3.595334,0.0803 -6.566281,0.16964 -6.602106,0.19844 -0.03582,0.0288 -0.09536,15.20143 -0.132292,33.71696 -0.05921,29.67899 -0.114142,33.67345 -0.46403,33.73926 -0.218282,0.041 -1.051719,-0.36551 -1.852084,-0.90348 z m 62.829299,-25.12367 c 0.10126,-0.67524 0.24146,-1.37719 0.31157,-1.55988 0.0828,-0.21587 -0.18678,-0.36887 -0.76996,-0.43695 l -0.89744,-0.10477 0.21577,1.19838 c 0.50348,2.79633 0.81872,3.04608 1.14006,0.90322 z m 3.05195,-46.16127 c 0,-3.49821 -0.0748,-4.49511 -0.33073,-4.41003 -0.45413,0.15096 -0.61345,8.03307 -0.17309,8.56366 0.16722,0.20149 0.34898,0.36634 0.40393,0.36634 0.0549,0 0.0999,-2.03399 0.0999,-4.51997 z m -57.002408,60.2308 c -1.60826,-0.59444 -2.331197,-1.23998 -3.144293,-2.80768 -0.612028,-1.18002 -0.722646,-1.66722 -0.609463,-2.68424 0.33462,-3.00678 2.495967,-4.97516 5.46289,-4.97516 2.984949,0 5.287025,2.30321 5.287025,5.28962 0,1.61186 -0.456537,2.78404 -1.478813,3.79692 -1.550133,1.53589 -3.665212,2.06513 -5.517346,1.38054 z m 3.755082,-0.97414 c 1.248319,-0.6043 2.288872,-1.94738 2.571585,-3.31924 0.413985,-2.00885 -1.059858,-4.45701 -3.167882,-5.26207 -3.805571,-1.45336 -7.576257,2.79581 -5.71578,6.4411 1.255815,2.46055 3.840202,3.33683 6.312077,2.14021 z m -4.387558,-3.12743 c -0.460917,-0.57355 -0.838031,-1.10933 -0.838031,-1.19062 0,-0.3847 0.758285,-0.0788 1.273453,0.51365 0.316322,0.3638 0.665215,0.66092 0.775318,0.66027 0.110103,-6.5e-4 0.933651,-0.6555 1.830106,-1.45521 1.557326,-1.38926 2.206539,-1.74459 2.206539,-1.20768 0,0.2834 -3.877931,3.72241 -4.197505,3.72241 -0.116516,0 -0.588962,-0.46927 -1.04988,-1.04282 z m 0.02774,-14.20694 c -3.4757,-1.71361 -4.236916,-6.00173 -1.542917,-8.69165 1.796343,-1.79361 3.931724,-2.15913 6.151528,-1.05295 1.889121,0.94139 2.807422,2.33769 2.943566,4.47578 0.151746,2.38314 -0.826454,4.12624 -2.917309,5.1985 -1.209914,0.62048 -3.450041,0.65446 -4.634868,0.0703 z m 4.451377,-0.77071 c 1.646365,-0.85137 2.837043,-3.23746 2.480021,-4.9699 -0.270824,-1.31417 -1.350589,-2.7621 -2.495262,-3.34607 -4.015303,-2.04845 -8.328898,2.14579 -6.369534,6.1933 1.178893,2.43526 3.97966,3.3664 6.384775,2.12267 z m -4.501819,-3.17766 c -0.993764,-1.13184 -0.812598,-1.78924 0.220354,-0.7996 0.392182,0.37573 0.866049,0.68315 1.053037,0.68315 0.186987,0 1.073441,-0.65431 1.969897,-1.45402 1.695845,-1.51283 2.026794,-1.69348 2.026794,-1.10635 0,0.41007 -3.657705,3.6187 -4.125159,3.6187 -0.174867,0 -0.690082,-0.42385 -1.144923,-0.94188 z m 0.554119,-13.91129 c -1.785758,-0.51444 -3.754948,-3.22123 -3.749228,-5.15357 0.0055,-1.85024 1.385448,-3.95188 3.204079,-4.87968 1.806955,-0.92184 4.496499,-0.52446 6.010854,0.88811 1.846293,1.7222 2.180574,4.9364 0.730943,7.02822 -1.334282,1.92537 -3.862932,2.78921 -6.196648,2.11692 z m 3.932459,-1.02705 c 1.880318,-0.95927 2.919012,-3.2513 2.380205,-5.25227 -0.573973,-2.13158 -2.361841,-3.53482 -4.503713,-3.53482 -4.042034,0 -6.255913,4.65886 -3.633294,7.64586 1.505154,1.71428 3.758082,2.1609 5.756802,1.14123 z m -4.48593,-3.14171 c -0.912791,-1.15249 -0.978839,-1.35098 -0.449537,-1.35098 0.201545,0 0.561477,0.29765 0.799849,0.66145 0.238373,0.36381 0.580364,0.66146 0.759982,0.66146 0.179617,0 1.077432,-0.65484 1.995144,-1.45521 1.615664,-1.40907 2.163996,-1.71678 2.163996,-1.21441 0,0.31932 -3.817269,3.72796 -4.174866,3.72796 -0.153222,0 -0.645777,-0.46362 -1.094568,-1.03027 z"
           id="path14" /><path
           style="fill:#5dd9d0"
           d="m 77.848437,188.71026 c -0.947805,-0.63736 -1.870997,-1.33683 -2.051538,-1.55436 -0.258267,-0.3112 -0.313935,-7.55382 -0.261092,-33.96928 l 0.06716,-33.57374 9.061979,-0.0696 9.061979,-0.0696 v -0.63878 c 0,-0.37495 0.287936,-0.86527 0.69714,-1.18715 0.611513,-0.48102 1.063,-0.54837 3.675859,-0.54837 2.472126,0 3.006036,-0.0712 3.139326,-0.41852 0.0883,-0.23018 0.16059,-1.41022 0.16059,-2.62231 0,-2.13607 0.025,-2.22485 0.81405,-2.88878 0.70284,-0.5914 1.0623,-0.68498 2.63108,-0.68498 1.53823,0 1.93094,0.0978 2.55939,0.63755 0.69825,0.59968 0.75022,0.79225 0.87465,3.24115 l 0.13229,2.60359 3.21467,0.1323 c 3.49869,0.14397 4.32596,0.48004 4.32596,1.75732 v 0.61698 l 9.06198,0.0696 9.06198,0.0696 v 33.729 33.72901 l -1.94732,1.39443 c -3.31915,2.37678 -2.94748,6.45486 -2.94748,-32.33994 0,-18.55391 -0.0298,-33.75794 -0.0661,-33.78673 -0.0364,-0.0288 -3.00778,-0.1181 -6.60312,-0.19844 l -6.53697,-0.14608 -0.0776,1.19062 -0.0776,1.19063 H 104.83943 93.85922 l -0.07761,-1.19063 -0.07761,-1.19062 -6.536969,0.14608 c -3.595334,0.0803 -6.566281,0.16964 -6.602106,0.19844 -0.03582,0.0288 -0.09536,15.20143 -0.132292,33.71696 -0.05921,29.67909 -0.114141,33.67343 -0.46403,33.73905 -0.218282,0.0409 -1.172352,-0.44704 -2.120158,-1.0844 z m 28.380053,-73.77989 c 0.61111,-0.70675 0.58429,-1.30967 -0.0967,-2.17546 -0.73577,-0.93538 -1.93822,-0.85687 -2.70649,0.17671 -1.36325,1.83401 1.30229,3.73459 2.80323,1.99875 z m -19.233138,62.90688 c -1.60826,-0.59444 -2.331197,-1.23998 -3.144293,-2.80768 -0.612028,-1.18002 -0.722646,-1.66722 -0.609463,-2.68424 0.33462,-3.00678 2.495967,-4.97516 5.46289,-4.97516 2.984949,0 5.287025,2.30321 5.287025,5.28962 0,1.61186 -0.456537,2.78404 -1.478813,3.79692 -1.550133,1.53589 -3.665212,2.06513 -5.517346,1.38054 z m 3.755082,-0.97414 c 1.248319,-0.6043 2.288872,-1.94738 2.571585,-3.31924 0.413985,-2.00885 -1.059858,-4.45701 -3.167882,-5.26207 -3.805571,-1.45336 -7.576257,2.79581 -5.71578,6.4411 1.255815,2.46055 3.840202,3.33683 6.312077,2.14021 z m -4.387558,-3.12743 c -0.460917,-0.57355 -0.838031,-1.10933 -0.838031,-1.19062 0,-0.3847 0.758285,-0.0788 1.273453,0.51365 0.316322,0.3638 0.665215,0.66092 0.775318,0.66027 0.110103,-6.5e-4 0.933651,-0.6555 1.830106,-1.45521 1.557326,-1.38926 2.206539,-1.74459 2.206539,-1.20768 0,0.2834 -3.877931,3.72241 -4.197505,3.72241 -0.116516,0 -0.588962,-0.46927 -1.04988,-1.04282 z M 139.588,161.60942 c -0.1698,-0.10802 -0.56305,-1.19251 -0.8739,-2.40998 -0.5409,-2.11849 -0.56429,-2.76929 -0.54459,-15.15047 0.0139,-8.72089 -0.0717,-13.10928 -0.26251,-13.46587 -0.18783,-0.35096 -0.27714,-3.92937 -0.2654,-10.63348 0.0149,-8.51889 0.08,-10.19964 0.4149,-10.71073 0.35868,-0.54742 0.60041,-0.60622 2.49216,-0.60622 1.38793,0 2.1656,0.11162 2.30429,0.33073 0.11514,0.1819 0.27099,0.9211 0.34635,1.64267 0.118,1.12997 0.22875,1.33346 0.79846,1.46704 l 0.66146,0.1551 0.0725,7.79337 c 0.0736,7.90644 -0.0357,8.98401 -0.91098,8.98401 -0.19369,0 -0.35595,0.20835 -0.36058,0.46302 -0.005,0.25466 -0.18684,0.69908 -0.40492,0.98761 -0.34041,0.45038 -0.39471,2.39668 -0.38383,13.75833 0.0116,12.15534 -0.028,13.38763 -0.48707,15.12213 -0.27485,1.03861 -0.58161,2.02088 -0.6817,2.18281 -0.20486,0.33148 -1.44352,0.38965 -1.91466,0.0899 z m 4.40976,-41.37275 c 0,-5.6017 -0.0716,-7.12665 -0.33073,-7.04154 -0.1819,0.0598 -0.3718,0.5757 -0.422,1.14653 -0.16925,1.92458 0.27869,13.33817 0.51767,13.19047 0.12928,-0.0799 0.23506,-3.36286 0.23506,-7.29546 z m -57.607139,39.29207 c -3.4757,-1.71361 -4.236916,-6.00173 -1.542917,-8.69165 1.796343,-1.79361 3.931724,-2.15913 6.151528,-1.05295 1.889121,0.94139 2.807422,2.33769 2.943566,4.47578 0.151746,2.38314 -0.826454,4.12624 -2.917309,5.1985 -1.209914,0.62048 -3.450041,0.65446 -4.634868,0.0703 z m 4.451377,-0.77071 c 1.646365,-0.85137 2.837043,-3.23746 2.480021,-4.9699 -0.270824,-1.31417 -1.350589,-2.7621 -2.495262,-3.34607 -4.015303,-2.04845 -8.328898,2.14579 -6.369534,6.1933 1.178893,2.43526 3.97966,3.3664 6.384775,2.12267 z m -4.501819,-3.17766 c -0.993764,-1.13184 -0.812598,-1.78924 0.220354,-0.7996 0.392182,0.37573 0.866049,0.68315 1.053037,0.68315 0.186987,0 1.073441,-0.65431 1.969897,-1.45402 1.695845,-1.51283 2.026794,-1.69348 2.026794,-1.10635 0,0.41007 -3.657705,3.6187 -4.125159,3.6187 -0.174867,0 -0.690082,-0.42385 -1.144923,-0.94188 z m 0.554119,-13.91129 c -1.785758,-0.51444 -3.754948,-3.22123 -3.749228,-5.15357 0.0055,-1.85024 1.385448,-3.95188 3.204079,-4.87968 1.806955,-0.92184 4.496499,-0.52446 6.010854,0.88811 1.846293,1.7222 2.180574,4.9364 0.730943,7.02822 -1.334282,1.92537 -3.862932,2.78921 -6.196648,2.11692 z m 3.932459,-1.02705 c 1.880318,-0.95927 2.919012,-3.2513 2.380205,-5.25227 -0.573973,-2.13158 -2.361841,-3.53482 -4.503713,-3.53482 -4.042034,0 -6.255913,4.65886 -3.633294,7.64586 1.505154,1.71428 3.758082,2.1609 5.756802,1.14123 z m -4.48593,-3.14171 c -0.912791,-1.15249 -0.978839,-1.35098 -0.449537,-1.35098 0.201545,0 0.561477,0.29765 0.799849,0.66145 0.238373,0.36381 0.580364,0.66146 0.759982,0.66146 0.179617,0 1.077432,-0.65484 1.995144,-1.45521 1.615664,-1.40907 2.163996,-1.71678 2.163996,-1.21441 0,0.31932 -3.817269,3.72796 -4.174866,3.72796 -0.153222,0 -0.645777,-0.46362 -1.094568,-1.03027 z"
           id="path13" /><path
           style="fill:#fda054"
           d="m 77.848437,188.71026 c -0.947805,-0.63736 -1.870997,-1.33683 -2.051538,-1.55436 -0.258267,-0.3112 -0.313935,-7.55382 -0.261092,-33.96928 l 0.06716,-33.57374 9.076618,-0.0696 9.076619,-0.0696 -0.08079,1.26027 -0.08079,1.26026 -6.482291,0.14415 c -3.565261,0.0793 -6.511603,0.16858 -6.547428,0.19844 -0.03582,0.0298 -0.09536,15.20336 -0.132292,33.71889 -0.05921,29.67909 -0.114141,33.67343 -0.46403,33.73905 -0.218282,0.0409 -1.172352,-0.44704 -2.120158,-1.0844 z m 51.332653,-32.58488 c 0,-18.55391 -0.0298,-33.75881 -0.0661,-33.78866 -0.0364,-0.0299 -2.98318,-0.11915 -6.54844,-0.19844 l -6.48229,-0.14415 -0.0808,-1.26026 -0.0808,-1.26027 9.07662,0.0696 9.07662,0.0696 v 33.729 33.72901 l -1.94732,1.39443 c -3.31915,2.37678 -2.94748,6.45486 -2.94748,-32.33994 z m -41.936454,18.12396 c -0.08994,-0.14553 0.02913,-0.26459 0.264584,-0.26459 0.235457,0 0.35452,0.11906 0.264583,0.26459 -0.08994,0.14552 -0.208999,0.26458 -0.264583,0.26458 -0.05558,0 -0.174647,-0.11906 -0.264584,-0.26458 z M 139.3501,161.10255 c 0.0732,-0.19083 0.004,-0.34696 -0.154,-0.34696 -0.15793,0 -0.22487,-0.23813 -0.14876,-0.52917 0.0761,-0.29104 0.0166,-0.52917 -0.13229,-0.52917 -0.14887,0 -0.2084,-0.23812 -0.13229,-0.52916 0.0761,-0.29105 0.0166,-0.52917 -0.13229,-0.52917 -0.14887,0 -0.20841,-0.23813 -0.1323,-0.52917 0.0761,-0.29104 0.0166,-0.52916 -0.13229,-0.52916 -0.14887,0 -0.2084,-0.23813 -0.13229,-0.52917 0.0761,-0.29104 0.0305,-0.52917 -0.10143,-0.52917 -0.1319,0 -0.23982,-0.12609 -0.23982,-0.2802 0,-0.15411 0.11907,-0.20661 0.26459,-0.11667 0.175,0.10815 0.26458,-4.18211 0.26458,-12.67124 0,-11.94446 -0.0321,-12.85347 -0.46302,-13.10445 -0.25466,-0.14832 -0.34396,-0.27512 -0.19844,-0.28178 0.14552,-0.007 0.086,-0.12751 -0.13229,-0.26857 -0.26458,-0.17099 -0.28663,-0.25784 -0.0661,-0.26054 0.25856,-0.003 0.33072,-2.14399 0.33072,-9.81103 0,-6.25422 0.0992,-9.99237 0.2739,-10.31875 0.2322,-0.43387 0.56646,-0.51177 2.19604,-0.51177 2.20682,0 2.55715,0.22177 2.55715,1.61878 0,1.388 0.22685,1.82081 0.95435,1.82081 0.51627,0 0.63166,0.13431 0.6251,0.7276 -0.007,0.62204 -0.0472,0.66043 -0.27773,0.26458 -0.33587,-0.57665 -0.92805,-0.59975 -1.14112,-0.0445 -0.28843,0.75161 -0.18087,8.00439 0.12147,8.19125 0.18611,0.11502 0.25543,1.61337 0.20376,4.40448 -0.069,3.72779 -0.13394,4.25992 -0.54666,4.4808 -0.43807,0.23445 -0.46834,1.07084 -0.46834,12.94134 0,8.28408 0.0919,12.6907 0.26458,12.6907 0.14553,0 0.26459,0.17859 0.26459,0.39687 0,0.21828 -0.10792,0.39688 -0.23982,0.39688 -0.13189,0 -0.17754,0.23812 -0.10143,0.52916 0.0761,0.29104 0.0166,0.52917 -0.13229,0.52917 -0.14887,0 -0.2084,0.23812 -0.13229,0.52917 0.0761,0.29104 0.0166,0.52916 -0.13229,0.52916 -0.14887,0 -0.2084,0.23813 -0.13229,0.52917 0.0761,0.29104 0.0166,0.52917 -0.1323,0.52917 -0.14887,0 -0.2084,0.23812 -0.13229,0.52916 0.0804,0.30757 0.008,0.52917 -0.17267,0.52917 -0.17109,0 -0.23374,0.1251 -0.13924,0.27801 0.11253,0.18209 -0.25041,0.25616 -1.05187,0.21467 -0.88345,-0.0457 -1.18668,-0.15982 -1.09055,-0.4103 z m -52.022781,-5.02562 c 0.190996,-0.0764 0.419199,-0.067 0.507118,0.0209 0.08792,0.0879 -0.06835,0.15045 -0.347266,0.13896 -0.308224,-0.0127 -0.370919,-0.0754 -0.159852,-0.15985 z m -0.08268,-18.07551 c -0.08994,-0.14552 0.02913,-0.26458 0.264584,-0.26458 0.235457,0 0.35452,0.11906 0.264583,0.26458 -0.08994,0.14552 -0.208999,0.26458 -0.264583,0.26458 -0.05558,0 -0.174647,-0.11906 -0.264584,-0.26458 z m 6.926225,-13.93176 c -0.245489,-0.24549 -0.22008,-5.43832 0.02852,-5.82929 0.390038,-0.61341 1.713952,-0.87645 4.411251,-0.87645 2.247695,0 2.761095,-0.0743 2.893195,-0.41852 0.0883,-0.23018 0.1606,-1.42622 0.1606,-2.65786 0,-2.02479 0.0622,-2.30156 0.64943,-2.88877 0.56465,-0.56466 0.88895,-0.64943 2.48423,-0.64943 2.7896,0 3.04989,0.30314 3.21634,3.74597 l 0.13229,2.73632 3.21884,0.13724 c 4.34981,0.18547 4.3641,0.19871 4.2641,3.94631 l -0.0746,2.79561 -10.60242,0.0691 c -5.831331,0.038 -10.683127,-0.0116 -10.78177,-0.11024 z M 106.1827,115.2676 c 0.46158,-0.46157 0.77339,-1.05314 0.77339,-1.46723 0,-0.96033 -1.09659,-1.9927 -2.11666,-1.9927 -0.98497,0 -2.11667,1.02306 -2.11667,1.91348 0,1.11492 1.14731,2.24632 2.33546,2.30308 0.19309,0.009 0.69911,-0.33126 1.12448,-0.75663 z m 38.15171,7.38799 c 0,-0.65485 0.0516,-0.92274 0.11466,-0.59532 0.0631,0.32742 0.0631,0.86321 0,1.19063 -0.0631,0.32742 -0.11466,0.0595 -0.11466,-0.59531 z m 0.0148,-3.04271 c 0.001,-1.01865 0.049,-1.40295 0.10627,-0.854 0.0573,0.54895 0.0563,1.38239 -0.002,1.85209 -0.0585,0.46969 -0.10531,0.0206 -0.10413,-0.99809 z"
           id="path12" /><path
           style="fill:#fd5c61"
           d="m 77.771238,188.37211 -1.771393,-1.22306 V 153.5794 120.00975 h 8.73125 8.73125 v 0.89774 c 0,0.59291 -0.149357,0.95504 -0.439881,1.06653 -0.241934,0.0928 -3.097439,0.15685 -6.345565,0.14224 -3.248127,-0.0146 -6.026743,0.0483 -6.174703,0.13971 -0.180016,0.11126 -0.269018,11.27805 -0.269018,33.75273 0,27.44736 -0.06311,33.58647 -0.345274,33.58647 -0.1899,0 -1.1424,-0.55038 -2.116666,-1.22306 z M 129.44568,156.0087 c 0,-22.39321 -0.0893,-33.64167 -0.26803,-33.75212 -0.14741,-0.0911 -3.04688,-0.15407 -6.44327,-0.13992 -6.73427,0.0281 -7.02772,-0.0353 -6.67466,-1.44201 l 0.16687,-0.6649 h 8.72621 8.72621 v 33.49786 33.49786 l -0.70779,0.56724 c -1.26319,1.01236 -2.85608,2.02017 -3.19481,2.02133 -0.26286,9e-4 -0.33073,-6.89195 -0.33073,-33.58534 z m -42.201044,18.24064 c -0.08994,-0.14553 0.02913,-0.26459 0.264584,-0.26459 0.235457,0 0.35452,0.11906 0.264583,0.26459 -0.08994,0.14552 -0.208999,0.26458 -0.264583,0.26458 -0.05558,0 -0.174647,-0.11906 -0.264584,-0.26458 z m 52.369054,-12.99443 c -0.10008,-0.16194 -0.40483,-1.1442 -0.67722,-2.18281 -0.45242,-1.72505 -0.49487,-3.02987 -0.49083,-15.08529 0.003,-8.92476 -0.0865,-13.30644 -0.27641,-13.53529 -0.37608,-0.45315 -0.35461,-20.34813 0.0227,-21.05318 0.22539,-0.42114 0.57487,-0.50109 2.19033,-0.50109 2.20682,0 2.55715,0.22177 2.55715,1.61878 0,1.388 0.22685,1.82081 0.95435,1.82081 0.51627,0 0.63166,0.13431 0.6251,0.7276 -0.007,0.62204 -0.0472,0.66043 -0.27773,0.26458 -0.36614,-0.62863 -0.96317,-0.58371 -1.17653,0.0885 -0.0963,0.30336 -0.0887,4.14533 0.0169,8.53772 0.17471,7.26816 0.15242,8.019 -0.248,8.35132 -0.40023,0.33216 -0.43759,1.56625 -0.41356,13.65804 0.0161,8.10532 -0.0769,13.6915 -0.23842,14.31432 -0.9052,3.49112 -0.796,3.27039 -1.61797,3.27039 -0.42236,0 -0.84982,-0.1325 -0.9499,-0.29443 z m -52.286371,-5.17798 c 0.190996,-0.0764 0.419199,-0.067 0.507118,0.0209 0.08792,0.0879 -0.06835,0.15045 -0.347266,0.13896 -0.308224,-0.0127 -0.370919,-0.0754 -0.159852,-0.15985 z m -0.08268,-18.07551 c -0.08994,-0.14552 0.02913,-0.26458 0.264584,-0.26458 0.235457,0 0.35452,0.11906 0.264583,0.26458 -0.08994,0.14552 -0.208999,0.26458 -0.264583,0.26458 -0.05558,0 -0.174647,-0.11906 -0.264584,-0.26458 z m 6.926225,-13.93176 c -0.245489,-0.24549 -0.22008,-5.43832 0.02852,-5.82929 0.390038,-0.61341 1.713952,-0.87645 4.411251,-0.87645 2.247695,0 2.761095,-0.0743 2.893195,-0.41852 0.0883,-0.23018 0.1606,-1.42622 0.1606,-2.65786 0,-2.02479 0.0622,-2.30156 0.64943,-2.88877 0.56465,-0.56466 0.88895,-0.64943 2.48423,-0.64943 2.7896,0 3.04989,0.30314 3.21634,3.74597 l 0.13229,2.73632 3.21884,0.13724 c 4.34981,0.18547 4.3641,0.19871 4.2641,3.94631 l -0.0746,2.79561 -10.60242,0.0691 c -5.831331,0.038 -10.683127,-0.0116 -10.78177,-0.11024 z M 106.1827,115.2676 c 0.46158,-0.46157 0.77339,-1.05314 0.77339,-1.46723 0,-0.96033 -1.09659,-1.9927 -2.11666,-1.9927 -0.98497,0 -2.11667,1.02306 -2.11667,1.91348 0,1.11492 1.14731,2.24632 2.33546,2.30308 0.19309,0.009 0.69911,-0.33126 1.12448,-0.75663 z m 38.15171,7.38799 c 0,-0.65485 0.0516,-0.92274 0.11466,-0.59532 0.0631,0.32742 0.0631,0.86321 0,1.19063 -0.0631,0.32742 -0.11466,0.0595 -0.11466,-0.59531 z m 0.0148,-3.04271 c 0.001,-1.01865 0.049,-1.40295 0.10627,-0.854 0.0573,0.54895 0.0563,1.38239 -0.002,1.85209 -0.0585,0.46969 -0.10531,0.0206 -0.10413,-0.99809 z"
           id="path11" /><path
           style="fill:#1ecfc3"
           d="m 87.244636,174.24934 c -0.08994,-0.14553 0.02913,-0.26459 0.264584,-0.26459 0.235457,0 0.35452,0.11906 0.264583,0.26459 -0.08994,0.14552 -0.208999,0.26458 -0.264583,0.26458 -0.05558,0 -0.174647,-0.11906 -0.264584,-0.26458 z m 52.369054,-12.99443 c -0.10008,-0.16194 -0.40483,-1.1442 -0.67722,-2.18281 -0.45242,-1.72505 -0.49487,-3.02987 -0.49083,-15.08529 0.003,-8.92476 -0.0865,-13.30644 -0.27641,-13.53529 -0.37608,-0.45315 -0.35461,-20.34813 0.0227,-21.05318 0.22539,-0.42114 0.57487,-0.50109 2.19033,-0.50109 2.20682,0 2.55715,0.22177 2.55715,1.61878 0,1.388 0.22685,1.82081 0.95435,1.82081 0.51627,0 0.63166,0.13431 0.6251,0.7276 -0.007,0.62204 -0.0472,0.66043 -0.27773,0.26458 -0.36614,-0.62863 -0.96317,-0.58371 -1.17653,0.0885 -0.0963,0.30336 -0.0887,4.14533 0.0169,8.53772 0.17471,7.26816 0.15242,8.019 -0.248,8.35132 -0.40023,0.33216 -0.43759,1.56625 -0.41356,13.65804 0.0161,8.10532 -0.0769,13.6915 -0.23842,14.31432 -0.9052,3.49112 -0.796,3.27039 -1.61797,3.27039 -0.42236,0 -0.84982,-0.1325 -0.9499,-0.29443 z m -52.286371,-5.17798 c 0.190996,-0.0764 0.419199,-0.067 0.507118,0.0209 0.08792,0.0879 -0.06835,0.15045 -0.347266,0.13896 -0.308224,-0.0127 -0.370919,-0.0754 -0.159852,-0.15985 z m -0.08268,-18.07551 c -0.08994,-0.14552 0.02913,-0.26458 0.264584,-0.26458 0.235457,0 0.35452,0.11906 0.264583,0.26458 -0.08994,0.14552 -0.208999,0.26458 -0.264583,0.26458 -0.05558,0 -0.174647,-0.11906 -0.264584,-0.26458 z m 6.926225,-13.93176 c -0.245489,-0.24549 -0.22008,-5.43832 0.02852,-5.82929 0.390038,-0.61341 1.713952,-0.87645 4.411251,-0.87645 2.247695,0 2.761095,-0.0743 2.893195,-0.41852 0.0883,-0.23018 0.1606,-1.42622 0.1606,-2.65786 0,-2.02479 0.0622,-2.30156 0.64943,-2.88877 0.56465,-0.56466 0.88895,-0.64943 2.48423,-0.64943 2.7896,0 3.04989,0.30314 3.21634,3.74597 l 0.13229,2.73632 3.21884,0.13724 c 4.34981,0.18547 4.3641,0.19871 4.2641,3.94631 l -0.0746,2.79561 -10.60242,0.0691 c -5.831331,0.038 -10.683127,-0.0116 -10.78177,-0.11024 z M 106.1827,115.2676 c 0.46158,-0.46157 0.77339,-1.05314 0.77339,-1.46723 0,-0.96033 -1.09659,-1.9927 -2.11666,-1.9927 -0.98497,0 -2.11667,1.02306 -2.11667,1.91348 0,1.11492 1.14731,2.24632 2.33546,2.30308 0.19309,0.009 0.69911,-0.33126 1.12448,-0.75663 z m 38.15171,7.38799 c 0,-0.65485 0.0516,-0.92274 0.11466,-0.59532 0.0631,0.32742 0.0631,0.86321 0,1.19063 -0.0631,0.32742 -0.11466,0.0595 -0.11466,-0.59531 z m 0.0148,-3.04271 c 0.001,-1.01865 0.049,-1.40295 0.10627,-0.854 0.0573,0.54895 0.0563,1.38239 -0.002,1.85209 -0.0585,0.46969 -0.10531,0.0206 -0.10413,-0.99809 z"
           id="path10" /><path
           style="fill:#0b7685"
           d="m 139.61146,161.25129 c -0.31248,-0.5056 -1.3812,-4.95876 -1.22705,-5.11291 0.19916,-0.19916 4.29043,-0.18491 4.29043,0.0149 0,0.0881 -0.1858,0.89181 -0.41289,1.78594 -0.97794,3.85043 -0.86486,3.61007 -1.69836,3.61007 -0.42236,0 -0.85082,-0.13412 -0.95213,-0.29805 z m -1.74321,-31.18545 c -0.0485,-0.14446 -0.0287,-3.98422 0.0441,-8.53281 l 0.1323,-8.27015 2.41669,-0.0757 2.4167,-0.0757 0.19493,8.31748 c 0.10721,4.57462 0.114,8.44844 0.0151,8.60848 -0.22872,0.37009 -5.09617,0.39651 -5.21979,0.0283 z m 0.22048,-18.16998 c -0.27274,-0.27274 -0.20834,-1.91536 0.0975,-2.48684 0.2322,-0.43387 0.56646,-0.51177 2.19604,-0.51177 1.14223,0 2.05098,0.12883 2.23965,0.3175 0.17462,0.17463 0.3175,0.889 0.3175,1.5875 v 1.27 h -2.33715 c -1.28544,0 -2.41653,-0.0794 -2.51355,-0.17639 z"
           id="path9" /></g></g></g></svg>
