<?xml version="1.0" encoding="UTF-8" standalone="no"?>
<!-- Created with Inkscape (http://www.inkscape.org/) -->

<svg
   width="123.19086mm"
   height="164.54121mm"
   viewBox="0 0 123.19086 164.54121"
   version="1.1"
   id="svg1"
   xml:space="preserve"
   sodipodi:docname="logo.svg"
   inkscape:version="1.4 (86a8ad7, 2024-10-11)"
   inkscape:export-filename="logo.png"
   inkscape:export-xdpi="96"
   inkscape:export-ydpi="96"
   xmlns:inkscape="http://www.inkscape.org/namespaces/inkscape"
   xmlns:sodipodi="http://sodipodi.sourceforge.net/DTD/sodipodi-0.dtd"
   xmlns="http://www.w3.org/2000/svg"
   xmlns:svg="http://www.w3.org/2000/svg"><sodipodi:namedview
     id="namedview1"
     pagecolor="#505050"
     bordercolor="#ffffff"
     borderopacity="1"
     inkscape:showpageshadow="0"
     inkscape:pageopacity="0"
     inkscape:pagecheckerboard="1"
     inkscape:deskcolor="#505050"
     inkscape:document-units="mm"
     inkscape:zoom="1"
     inkscape:cx="48"
     inkscape:cy="322.5"
     inkscape:window-width="1920"
     inkscape:window-height="991"
     inkscape:window-x="-9"
     inkscape:window-y="-9"
     inkscape:window-maximized="1"
     inkscape:current-layer="g7"
     inkscape:export-bgcolor="#ff0fff00" /><defs
     id="defs1" /><g
     inkscape:label="Capa 1"
     inkscape:groupmode="layer"
     id="layer1"
     transform="translate(-284.74895,-29.56001)"><g
       id="g7"
       transform="matrix(0.43560138,0,0,0.54107815,234.53032,-31.350727)"><path
         style="fill:#c80000;stroke-width:3.5143;fill-opacity:1"
         d="m 162.34749,409.7878 c -4.84751,-2.22109 -13.41177,-6.05367 -19.03168,-8.51681 -11.25312,-4.93213 -17.18221,-9.51353 -19.15116,-14.79807 -1.80637,-4.84817 -1.71063,-146.48372 0.10099,-149.41151 0.71662,-1.15813 3.82029,-3.10949 6.98381,-4.39094 28.77191,-11.78611 124.25866,-48.13855 125.97083,-48.13855 2.22392,0 4.66973,2.99261 4.66973,5.7137 0,2.59434 -0.37317,2.81131 -14.25738,8.28897 -7.84156,3.0937 -17.99024,7.00128 -22.5526,8.68349 -41.90116,15.44965 -80.57278,30.77387 -81.14534,32.15512 -0.37286,0.89953 25.8017,11.86285 28.32215,11.86285 0.85799,0 6.95949,-2.06368 13.55888,-4.58592 6.59938,-2.52223 12.20022,-4.58591 12.44631,-4.58591 0.24607,0 18.51255,-7.16601 40.59214,-15.92447 22.0796,-8.75849 41.89448,-16.49105 44.03312,-17.18347 l 3.88835,-1.25897 v -16.8916 -16.89159 l -4.22899,-2.25046 c -7.80793,-4.15496 -10.32914,-12.59139 -5.88077,-19.67833 5.27282,-8.40049 20.28901,-10.18552 29.1258,-3.46225 4.25756,3.23923 5.87191,6.20313 5.85255,10.74496 -0.0196,4.87363 -3.33135,9.97265 -8.01188,12.33996 l -3.29709,1.66762 -0.04,17.75967 c -0.0314,14.50723 -0.33978,18.22611 -1.67772,20.30645 -1.34657,2.09394 -4.71138,3.73606 -18.92343,9.23514 -9.50713,3.67857 -31.05055,12.10478 -47.87428,18.72485 -16.82372,6.62009 -35.99753,14.11639 -42.60848,16.65848 l -12.01989,4.62193 c -3.00881,96.45661 -0.53922,143.23957 -0.31078,143.23957 2.74261,0 114.05451,-46.09142 151.11178,-60.3512 l 14.77584,-5.68584 v -51.23352 -51.23349 l 14.52996,-11.4267 14.52999,-11.4267 -0.0118,-8.51356 c -0.008,-5.78801 -0.42831,-8.78705 -1.3095,-9.36772 -0.71286,-0.46974 -2.76124,-1.79638 -4.55191,-2.94808 -4.488,-2.88644 -6.94705,-8.10909 -6.08123,-12.9155 1.90675,-10.58512 15.60855,-15.84209 27.1342,-10.41063 11.43336,5.38797 11.57852,19.05028 0.26218,24.66014 l -4.00529,1.98552 -0.0274,11.3505 -0.0274,11.3505 -14.51659,11.36733 -14.51664,11.36729 v 51.52591 51.5259 l -87.65539,35.19273 c -68.29027,27.41861 -88.50418,35.19261 -91.50654,35.19217 -2.70242,-4.1e-4 -6.48658,-1.20698 -12.66729,-4.03896 z m 1.55536,-150.63064 -13.47972,-5.59322 c -7.41385,-3.07628 -14.06298,-5.60895 -14.77585,-5.62817 -1.38389,-0.0383 -2.91677,132.47642 0.70326,137.25047 2.13367,2.8138 7.50451,5.98374 16.66484,9.83576 3.13663,1.31898 6.59556,2.88483 7.68652,3.47965 1.09095,0.59483 2.25747,0.94491 2.59225,0.77798 0.9585,-46.69532 0.6087,-93.4176 0.6087,-140.12247 z m 216.52131,-73.91624 c 2.92413,-1.23767 3.78482,-2.32641 3.80433,-4.81234 0.0196,-2.71992 -2.81893,-5.07129 -6.10701,-5.05569 -8.84502,0.0419 -9.09525,9.35227 -0.28962,10.7738 0.17989,0.0284 1.34661,-0.37855 2.59226,-0.90577 z m -83.08901,-21.84048 c 4.71553,-2.88263 1.78345,-9.73369 -4.1541,-9.7064 -3.35631,0.0158 -4.68281,0.66469 -6.25018,3.05917 -1.71009,2.61255 -1.48059,4.20031 0.8817,6.0999 2.34101,1.88247 6.90896,2.14504 9.52258,0.54733 z m -96.58582,193.78438 c -2.92987,-4.40219 -3.45809,-4.1203 40.14344,-21.42305 64.27194,-25.5056 75.06385,-29.5957 77.38048,-29.32714 2.40678,0.27889 4.44485,3.85996 3.4196,6.00835 -0.35898,0.75195 -11.97818,5.82137 -25.82078,11.26544 -13.84261,5.44403 -39.38975,15.56622 -56.77141,22.49373 -17.50949,6.97847 -32.8684,12.59548 -34.44049,12.59548 -1.7441,0 -3.25107,-0.62148 -3.91084,-1.61281 z m 0.64267,-31.59765 c -2.0264,-1.80057 -2.25665,-5.42613 -0.41993,-6.61221 0.71287,-0.46035 24.85971,-10.07738 53.65964,-21.37118 l 52.36353,-20.53421 -0.37152,-25.21532 c -0.25866,-17.54506 -0.0118,-25.94934 0.80872,-27.6283 0.64926,-1.32713 6.55715,-6.54168 13.12861,-11.58792 l 11.94812,-9.17498 -0.36721,-27.36285 -0.36721,-27.36286 -4.32552,-2.51965 c -13.12985,-7.64823 -10.8064,-23.7407 4.1534,-28.76699 16.9874,-5.70755 33.55038,8.79704 25.77254,22.56965 -1.86568,3.30365 -7.81542,7.82433 -10.29776,7.82433 -0.88279,0 -1.19823,7.4305 -1.19823,28.22526 v 28.2253 l -2.8515,3.01608 c -1.56831,1.65886 -7.51754,7.02023 -13.2205,11.91416 l -10.36901,8.89803 0.38289,26.89907 0.38289,26.89904 -2.45663,1.08474 c -1.35115,0.59661 -15.28828,6.10159 -30.97144,12.23335 -15.68313,6.13176 -40.41322,15.81477 -54.95576,21.51781 -14.54255,5.70305 -26.95193,10.36586 -27.57641,10.36182 -0.62448,-0.003 -1.90764,-0.69352 -2.85147,-1.53217 z m 143.45014,-188.5819 c 4.44661,-3.57571 0.62492,-10.83947 -5.70297,-10.83947 -3.53599,0 -7.77674,3.47382 -7.77674,6.37032 0,5.24836 8.85838,8.18528 13.47971,4.46915 z M 200.33532,287.21473 c -1.16487,-1.03506 -1.72002,-2.61088 -1.50998,-4.28615 0.32273,-2.57426 0.96371,-2.89208 22.62553,-11.21783 12.26136,-4.71266 28.63743,-11.07015 36.39128,-14.12774 7.75593,-3.05841 14.80613,-5.3407 15.67231,-5.07343 2.18159,0.67317 4.128,4.41322 3.33816,6.41431 -0.4662,1.18117 -10.67601,5.60337 -35.41523,15.33957 -19.11811,7.52398 -35.77263,13.88427 -37.01006,14.13402 -1.46035,0.29465 -2.8963,-0.12039 -4.09201,-1.18275 z"
         id="path8"
         sodipodi:nodetypes="sssssssscsssssscccssssscssssscsscccccsssssscccccccsssscscsssscscscssssssssssssssssscssscccssssscsscccssscssssssssssssssss" /></g></g></svg>
