<?xml version="1.0" encoding="UTF-8" standalone="no"?>
<!-- Created with Inkscape (http://www.inkscape.org/) -->

<svg
   width="200.77879mm"
   height="200.94566mm"
   viewBox="0 0 200.77879 200.94566"
   version="1.1"
   id="svg1"
   xml:space="preserve"
   inkscape:version="1.4 (86a8ad7, 2024-10-11)"
   sodipodi:docname="logo-con-fondo.svg"
   inkscape:export-filename="logo-con-fondo.png"
   inkscape:export-xdpi="96"
   inkscape:export-ydpi="96"
   xmlns:inkscape="http://www.inkscape.org/namespaces/inkscape"
   xmlns:sodipodi="http://sodipodi.sourceforge.net/DTD/sodipodi-0.dtd"
   xmlns="http://www.w3.org/2000/svg"
   xmlns:svg="http://www.w3.org/2000/svg"><sodipodi:namedview
     id="namedview1"
     pagecolor="#505050"
     bordercolor="#ffffff"
     borderopacity="1"
     inkscape:showpageshadow="0"
     inkscape:pageopacity="0"
     inkscape:pagecheckerboard="1"
     inkscape:deskcolor="#505050"
     inkscape:document-units="mm"
     inkscape:zoom="0.68862935"
     inkscape:cx="261.3888"
     inkscape:cy="532.21664"
     inkscape:window-width="1920"
     inkscape:window-height="991"
     inkscape:window-x="-9"
     inkscape:window-y="-9"
     inkscape:window-maximized="1"
     inkscape:current-layer="layer1" /><defs
     id="defs1" /><g
     inkscape:label="Capa 1"
     inkscape:groupmode="layer"
     id="layer1"
     transform="translate(-8.068564,-46.874515)"><circle
       style="fill:#000000;fill-opacity:0.5804196;stroke-width:0.466023;stroke-linecap:square;stroke-miterlimit:0"
       id="path2"
       cx="108.45277"
       cy="146.87436"
       r="100" /><path
       style="fill:#c80000;fill-opacity:1;stroke-width:1.70614"
       d="m 68.560764,224.25455 c -2.11158,-1.20179 -5.84219,-3.27551 -8.29023,-4.60826 -4.90187,-2.66867 -7.48459,-5.14757 -8.34227,-8.00691 -0.78686,-2.62324 -0.74515,-79.25915 0.044,-80.84331 0.31216,-0.62664 1.66413,-1.68248 3.04216,-2.37584 5.87267,-2.95483 24.42629,-11.96802 27.32246,-13.273 1.73895,-0.78354 5.70241,-2.63495 8.80767,-4.11421 15.998256,-7.62113 18.245746,-8.65951 18.742936,-8.65951 0.96874,0 2.03414,1.61924 2.03414,3.09156 0,1.40374 -0.16255,1.52114 -6.21054,4.48498 -3.41579,1.67393 -7.836566,3.78824 -9.823936,4.69845 -18.2522,8.35947 -35.09761,16.65107 -35.34702,17.39843 -0.16242,0.48672 11.23925,6.41873 12.33717,6.41873 0.37374,0 3.03156,-1.11661 5.90626,-2.48134 2.8747,-1.36473 5.31444,-2.48134 5.42163,-2.48134 0.10719,0 8.06409,-3.87737 17.681986,-8.61638 9.61791,-4.73903 18.2493,-8.92295 19.18089,-9.2976 l 1.69377,-0.6812 v -9.13968 -9.139669 l -1.84215,-1.217674 c -3.40114,-2.248158 -4.49939,-6.812926 -2.56167,-10.647515 2.29685,-4.545321 8.83792,-5.511162 12.68724,-1.873348 1.8546,1.752677 2.55781,3.356378 2.54938,5.813863 -0.008,2.637015 -1.45114,5.395983 -3.48999,6.676883 l -1.43622,0.902313 -0.0174,9.609367 c -0.0137,7.84955 -0.14801,9.86175 -0.73081,10.98738 -0.58657,1.13299 -2.05229,2.0215 -8.24308,4.99693 -4.14132,1.9904 -13.52566,6.54963 -20.854096,10.13161 -7.32844,3.58199 -15.68057,7.63807 -18.56031,9.01354 l -5.23588,2.50082 -0.29622,11.79559 c -0.48029,19.1253 -0.36627,65.70822 0.16084,65.70822 0.47056,0 13.83636,-6.62706 42.901946,-21.27172 9.06739,-4.56858 19.38253,-9.69094 22.92255,-11.383 l 6.43638,-3.07648 v -27.72134 -27.72132 l 6.32927,-6.18274 6.32928,-6.18274 -0.005,-4.6065 c -0.003,-3.13177 -0.18657,-4.75448 -0.57042,-5.06867 -0.31052,-0.25416 -1.2028,-0.97198 -1.98282,-1.59514 -1.95498,-1.56179 -3.02614,-4.38765 -2.64899,-6.988297 0.83058,-5.727377 6.7991,-8.571808 11.81969,-5.632964 4.98039,2.915313 5.04362,10.307691 0.11421,13.343061 l -1.74471,1.07432 -0.0119,6.14151 -0.0119,6.14151 -6.32345,6.15061 -6.32347,6.1506 v 27.87954 27.87954 l -38.1828,19.04202 c -29.747336,14.83561 -38.552546,19.04195 -39.860376,19.04171 -1.17718,-2.2e-4 -2.82556,-0.65307 -5.51789,-2.18539 z m 0.67752,-43.67646 V 142.7516 l -5.87179,-3.02637 c -3.22948,-1.66451 -6.12585,-3.03488 -6.43638,-3.04528 -0.44718,-0.0154 -0.56424,7.55701 -0.5629,36.41161 0.002,35.13387 0.0326,36.48106 0.86924,37.85162 0.92943,1.52249 3.26898,3.23767 7.25923,5.32192 1.36632,0.71367 2.87303,1.56091 3.34826,1.88276 0.47522,0.32185 0.98335,0.51127 1.12919,0.42095 0.14583,-0.0904 0.26515,-17.18617 0.26515,-37.99072 z m 94.316976,-77.82095 c 1.27375,-0.66968 1.64867,-1.25877 1.65717,-2.60386 0.009,-1.471686 -1.22793,-2.743961 -2.66022,-2.73552 -3.8529,0.02267 -3.9619,5.06031 -0.12616,5.82947 0.0784,0.0154 0.58658,-0.20483 1.12919,-0.49009 z M 127.36157,90.939729 c 2.05409,-1.559728 0.77687,-5.266687 -1.80953,-5.251921 -1.46201,0.0085 -2.03984,0.359649 -2.72259,1.65525 -0.74492,1.413594 -0.64494,2.272696 0.38407,3.300522 1.01975,1.018564 3.00955,1.160635 4.14805,0.296149 z M 85.288654,195.79222 c -1.27625,-2.38192 -1.50635,-2.2294 17.486536,-11.59154 27.99695,-13.80052 32.69792,-16.01359 33.70705,-15.86827 1.04839,0.1509 1.93618,2.08854 1.48958,3.25098 -0.15637,0.40687 -5.21771,3.14982 -11.24757,6.09549 -6.02986,2.94564 -17.15823,8.42254 -24.7297,12.17086 -7.627156,3.7759 -14.317516,6.81514 -15.002326,6.81514 -0.75973,0 -1.41617,-0.33627 -1.70357,-0.87266 z m 0.27995,-17.09679 c -0.8827,-0.97425 -0.983,-2.93596 -0.18292,-3.57773 0.31053,-0.24908 10.82892,-5.45265 23.374206,-11.56347 l 22.80963,-11.11062 -0.16183,-13.64346 c -0.11268,-9.49324 -0.005,-14.04062 0.35227,-14.94907 0.28282,-0.71808 2.85631,-3.53956 5.71885,-6.26997 l 5.20461,-4.96438 -0.15995,-14.805439 -0.15996,-14.805445 -1.8842,-1.363328 c -5.71938,-4.13829 -4.70729,-12.845574 1.80922,-15.565189 7.39974,-3.088231 14.6146,4.759886 11.22656,12.211944 -0.8127,1.787533 -3.40441,4.233574 -4.48572,4.233574 -0.38455,0 -0.52195,4.020481 -0.52195,15.272071 v 15.272092 l -1.24212,1.63194 c -0.68316,0.89757 -3.27465,3.79849 -5.75887,6.44649 l -4.51675,4.81453 0.16678,14.5545 0.16679,14.55448 -1.07011,0.58693 c -0.58856,0.32281 -6.6596,3.30144 -13.4912,6.6192 -6.83159,3.31776 -17.60406,8.55703 -23.938806,11.64282 -6.33475,3.08579 -11.7403,5.60874 -12.01232,5.60655 -0.27202,-0.002 -0.83097,-0.37525 -1.2421,-0.82902 z M 148.05568,76.657879 c 1.93695,-1.934739 0.27222,-5.865 -2.48422,-5.865 -1.54028,0 -3.38756,1.879608 -3.38756,3.446841 0,2.839773 3.85872,4.428876 5.87178,2.418159 z M 85.108314,157.93294 c -0.50742,-0.56005 -0.74924,-1.41269 -0.65775,-2.31914 0.14058,-1.39288 0.41979,-1.56485 9.85571,-6.06973 5.34107,-2.54991 12.474506,-5.98981 15.852086,-7.64421 3.3785,-1.65484 6.44958,-2.88974 6.82689,-2.74512 0.9503,0.36424 1.79816,2.3879 1.4541,3.47064 -0.20307,0.63911 -4.65048,3.03186 -15.42692,8.29991 -8.327876,4.07106 -15.582606,7.51247 -16.121626,7.64761 -0.63613,0.15943 -1.26164,-0.0651 -1.78249,-0.63996 z"
       id="path8"
       sodipodi:nodetypes="sssssssssscsssssscccssssscssssscsssscccccsssssscccccccssssscscssssssscscssssssssssssssssscssscccssssscsscccssscsssssssssssssss" /></g></svg>
